# xmcd CD database file
#
# Track frame offsets:
#	150
#	40857
#	91670
#	113202
#	157225
#	164080
#	171859
#
# Disc length: 2704 seconds
#
# Revision: 1
# Processed by: cddbd v1.5.1PL0 Copyright (c) Steve Scherf et al.
# Submitted via: CDex 1.51
#
DISCID=560a8e07
DTITLE=Brucker's Unlimited - Brucker's Drittbeste
DYEAR=1995
DGENRE=Jazz
TTITLE0=Frühstück
TTITLE1=Six pieces for russia
TTITLE2=Voller Berg
TTITLE3=Ferien mit Tunzendorf
TTITLE4=Paper Not
TTITLE5=Some tales
TTITLE6=Mölle
EXTD=YEAR: 1995
EXTT0=
EXTT1=
EXTT2=
EXTT3=
EXTT4=
EXTT5=
EXTT6=
PLAYORDER=
